<svg width="768" height="136" viewBox="0 0 768 136" fill="none" xmlns="http://www.w3.org/2000/svg">
<path d="M276.627 92.7739C276.627 94.7271 276.281 96.8226 275.589 99.0605C274.938 101.299 273.84 103.374 272.293 105.286C270.788 107.199 268.814 108.806 266.373 110.108C263.932 111.369 260.941 112 257.401 112H197.159C196.02 112 194.962 111.797 193.985 111.39C193.009 110.983 192.154 110.433 191.422 109.742C190.73 109.009 190.181 108.155 189.774 107.178C189.367 106.202 189.164 105.144 189.164 104.004V32.4712C189.164 31.3726 189.367 30.335 189.774 29.3584C190.181 28.3818 190.73 27.5273 191.422 26.7949C192.154 26.0625 193.009 25.4928 193.985 25.0859C194.962 24.679 196.02 24.4756 197.159 24.4756H250.26C252.213 24.4756 254.308 24.8215 256.546 25.5132C258.784 26.2049 260.86 27.3239 262.772 28.8701C264.725 30.3757 266.332 32.3491 267.594 34.7905C268.896 37.2319 269.547 40.2227 269.547 43.7627V46.7534C269.547 49.561 269.079 52.5924 268.143 55.8477C267.207 59.0622 265.702 62.1139 263.626 65.0029C265.417 66.1016 267.085 67.424 268.631 68.9702C270.218 70.5164 271.602 72.3068 272.782 74.3413C273.962 76.3758 274.898 78.6748 275.589 81.2383C276.281 83.8018 276.627 86.6297 276.627 89.7222V92.7739ZM260.758 89.7222C260.758 87.647 260.432 85.7956 259.781 84.168C259.13 82.4997 258.215 81.0755 257.035 79.8955C255.855 78.7155 254.431 77.8203 252.762 77.21C251.094 76.5589 249.222 76.2334 247.147 76.2334H211.38V60.2422H240.006C242.081 60.2422 243.953 59.937 245.621 59.3267C247.289 58.6756 248.714 57.7601 249.894 56.5801C251.074 55.4001 251.969 53.9963 252.579 52.3687C253.23 50.7004 253.556 48.8286 253.556 46.7534V43.7627C253.556 41.484 252.457 40.3447 250.26 40.3447H205.033V96.1309H257.401C257.686 96.1309 258.032 96.1105 258.438 96.0698C258.845 96.0291 259.212 95.9071 259.537 95.7036C259.863 95.5002 260.147 95.1543 260.392 94.666C260.636 94.1777 260.758 93.5063 260.758 92.6519V89.7222ZM355.577 90.1494C355.577 92.3467 355.191 94.7271 354.417 97.2905C353.644 99.8133 352.383 102.173 350.633 104.371C348.924 106.527 346.666 108.338 343.858 109.803C341.091 111.268 337.714 112 333.727 112H305.101C302.904 112 300.523 111.613 297.96 110.84C295.437 110.067 293.077 108.826 290.88 107.117C288.723 105.368 286.913 103.109 285.448 100.342C283.983 97.5347 283.25 94.137 283.25 90.1494C283.25 87.9521 283.637 85.5718 284.41 83.0083C285.183 80.4448 286.424 78.0848 288.133 75.9282C289.883 73.731 292.141 71.8999 294.908 70.4351C297.716 68.9702 301.113 68.2378 305.101 68.2378H333.727V83.3745H305.101C302.944 83.3745 301.276 84.0459 300.096 85.3887C298.916 86.6908 298.326 88.3184 298.326 90.2715C298.326 92.3467 298.998 93.9743 300.34 95.1543C301.724 96.2936 303.351 96.8633 305.223 96.8633H333.727C335.883 96.8633 337.551 96.2122 338.731 94.9102C339.911 93.6081 340.501 91.9805 340.501 90.0273V67.8716C340.501 65.7964 339.85 64.1484 338.548 62.9277C337.287 61.707 335.68 61.0967 333.727 61.0967H298.875V46.021H333.727C335.924 46.021 338.284 46.4076 340.807 47.1807C343.37 47.9538 345.73 49.2152 347.887 50.9648C350.084 52.6738 351.915 54.9321 353.38 57.7397C354.845 60.5067 355.577 63.884 355.577 67.8716V90.1494ZM425.616 61.8901H389.911C387.754 61.8901 386.126 62.4395 385.028 63.5381C383.929 64.596 383.38 66.1626 383.38 68.2378V112H367.511V68.2378C367.511 65.5116 367.857 63.0701 368.548 60.9136C369.24 58.757 370.156 56.8649 371.295 55.2373C372.475 53.569 373.818 52.1652 375.323 51.0259C376.829 49.8459 378.395 48.8896 380.023 48.1572C381.691 47.4248 383.36 46.8958 385.028 46.5703C386.737 46.2041 388.324 46.021 389.789 46.021H425.616V61.8901ZM507.618 89.7222C507.618 91.2277 507.435 92.8146 507.069 94.4829C506.743 96.1512 506.214 97.8195 505.482 99.4878C504.75 101.115 503.793 102.682 502.613 104.188C501.474 105.693 500.07 107.036 498.402 108.216C496.774 109.355 494.882 110.271 492.726 110.962C490.569 111.654 488.128 112 485.401 112H456.776C455.27 112 453.683 111.837 452.015 111.512C450.347 111.146 448.679 110.596 447.01 109.864C445.383 109.131 443.816 108.195 442.311 107.056C440.805 105.876 439.462 104.472 438.282 102.845C437.143 101.176 436.227 99.264 435.536 97.1074C434.844 94.9102 434.498 92.4484 434.498 89.7222V18.1279H450.367V89.7222C450.367 91.6753 450.978 93.2419 452.198 94.4219C453.419 95.5612 454.945 96.1309 456.776 96.1309H485.401C487.395 96.1309 488.941 95.5409 490.04 94.3608C491.179 93.1808 491.749 91.6346 491.749 89.7222V68.2378C491.749 66.244 491.159 64.6978 489.979 63.5991C488.799 62.4598 487.273 61.8901 485.401 61.8901H456.776V46.021H485.401C486.907 46.021 488.494 46.2041 490.162 46.5703C491.83 46.8958 493.478 47.4248 495.106 48.1572C496.774 48.8896 498.361 49.8459 499.867 51.0259C501.372 52.1652 502.695 53.569 503.834 55.2373C504.973 56.8649 505.889 58.757 506.581 60.9136C507.272 63.0701 507.618 65.5116 507.618 68.2378V89.7222ZM588.033 90.1494C588.033 92.3467 587.647 94.7271 586.874 97.2905C586.1 99.8133 584.839 102.173 583.089 104.371C581.38 106.527 579.122 108.338 576.314 109.803C573.548 111.268 570.17 112 566.183 112H537.557C535.36 112 532.979 111.613 530.416 110.84C527.893 110.067 525.533 108.826 523.336 107.117C521.179 105.368 519.369 103.109 517.904 100.342C516.439 97.5347 515.707 94.137 515.707 90.1494C515.707 87.9521 516.093 85.5718 516.866 83.0083C517.639 80.4448 518.88 78.0848 520.589 75.9282C522.339 73.731 524.597 71.8999 527.364 70.4351C530.172 68.9702 533.569 68.2378 537.557 68.2378H566.183V83.3745H537.557C535.401 83.3745 533.732 84.0459 532.552 85.3887C531.372 86.6908 530.782 88.3184 530.782 90.2715C530.782 92.3467 531.454 93.9743 532.796 95.1543C534.18 96.2936 535.807 96.8633 537.679 96.8633H566.183C568.339 96.8633 570.007 96.2122 571.188 94.9102C572.368 93.6081 572.958 91.9805 572.958 90.0273V67.8716C572.958 65.7964 572.306 64.1484 571.004 62.9277C569.743 61.707 568.136 61.0967 566.183 61.0967H531.332V46.021H566.183C568.38 46.021 570.74 46.4076 573.263 47.1807C575.826 47.9538 578.186 49.2152 580.343 50.9648C582.54 52.6738 584.371 54.9321 585.836 57.7397C587.301 60.5067 588.033 63.884 588.033 67.8716V90.1494ZM673.453 112H657.584V75.3789C657.584 73.3037 657.218 71.4523 656.485 69.8247C655.794 68.1564 654.837 66.7323 653.617 65.5522C652.396 64.3722 650.951 63.4771 649.283 62.8667C647.656 62.2157 645.886 61.8901 643.973 61.8901H616.202V112H600.333V53.8945C600.333 52.7959 600.536 51.7786 600.943 50.8428C601.35 49.8662 601.92 49.0321 602.652 48.3403C603.385 47.6079 604.239 47.0382 605.216 46.6313C606.192 46.2244 607.23 46.021 608.329 46.021H644.095C646.089 46.021 648.185 46.2448 650.382 46.6924C652.62 47.14 654.817 47.8724 656.974 48.8896C659.171 49.8662 661.246 51.1276 663.199 52.6738C665.193 54.1794 666.943 56.0308 668.448 58.228C669.994 60.3846 671.215 62.887 672.11 65.7354C673.006 68.5837 673.453 71.7982 673.453 75.3789V112ZM757.896 89.7222C757.896 92.4484 757.551 94.9102 756.859 97.1074C756.167 99.264 755.252 101.176 754.112 102.845C752.973 104.472 751.651 105.876 750.145 107.056C748.639 108.195 747.053 109.131 745.384 109.864C743.757 110.596 742.088 111.146 740.379 111.512C738.711 111.837 737.124 112 735.619 112H706.993C704.796 112 702.395 111.613 699.791 110.84C697.187 110.067 694.766 108.806 692.528 107.056C690.331 105.266 688.479 102.967 686.974 100.159C685.509 97.3109 684.776 93.8319 684.776 89.7222V68.2378C684.776 64.1688 685.509 60.7305 686.974 57.9229C688.479 55.0745 690.331 52.7756 692.528 51.0259C694.766 49.2355 697.187 47.9538 699.791 47.1807C702.395 46.4076 704.796 46.021 706.993 46.021H735.619C739.688 46.021 743.146 46.7534 745.995 48.2183C748.843 49.6831 751.142 51.5345 752.892 53.7725C754.641 55.9697 755.903 58.3704 756.676 60.9746C757.49 63.5788 757.896 65.9998 757.896 68.2378V89.7222ZM742.027 68.3599C742.027 66.1626 741.478 64.535 740.379 63.4771C739.281 62.4191 737.694 61.8901 735.619 61.8901H707.115C704.999 61.8901 703.392 62.4395 702.293 63.5381C701.195 64.596 700.646 66.1626 700.646 68.2378V89.7222C700.646 91.7974 701.195 93.3843 702.293 94.4829C703.392 95.5815 704.999 96.1309 707.115 96.1309H735.619C737.775 96.1309 739.382 95.5815 740.44 94.4829C741.498 93.3843 742.027 91.7974 742.027 89.7222V68.3599Z" fill="#FF0D0D"/>
</svg>
