<svg width="24" height="24" viewBox="0 0 24 24" fill="none" xmlns="http://www.w3.org/2000/svg">
<path d="M20 2H4C2.9 2 2 2.9 2 4V22L6 18H20C21.1 18 22 17.1 22 16V4C22 2.9 21.1 2 20 2ZM20 16H5.2L4 17.2V4H20V16Z" fill="black"/>
<path d="M6.37926 12V7.63636H9.3196V8.39702H7.30185V9.43679H9.16832V10.1974H7.30185V11.2393H9.32812V12H6.37926ZM13.7029 7.63636V12H12.9061L11.0076 9.25355H10.9757V12H10.0531V7.63636H10.8627L12.7463 10.3807H12.7846V7.63636H13.7029ZM17.3587 9.04688C17.3288 8.94318 17.2869 8.85156 17.233 8.77202C17.179 8.69105 17.1129 8.62287 17.0348 8.56747C16.9581 8.51065 16.87 8.46733 16.7706 8.4375C16.6726 8.40767 16.5639 8.39276 16.4446 8.39276C16.2216 8.39276 16.0256 8.44815 15.8565 8.55895C15.6889 8.66974 15.5582 8.83097 15.4645 9.04261C15.3707 9.25284 15.3239 9.50994 15.3239 9.81392C15.3239 10.1179 15.37 10.3764 15.4624 10.5895C15.5547 10.8026 15.6854 10.9652 15.8544 11.0774C16.0234 11.1882 16.223 11.2436 16.4531 11.2436C16.6619 11.2436 16.8402 11.2067 16.9879 11.1328C17.1371 11.0575 17.2507 10.9517 17.3288 10.8153C17.4084 10.679 17.4482 10.5178 17.4482 10.3317L17.6357 10.3594H16.5107V9.66477H18.3366V10.2145C18.3366 10.598 18.2557 10.9276 18.0938 11.2031C17.9318 11.4773 17.7088 11.6889 17.4247 11.8381C17.1406 11.9858 16.8153 12.0597 16.4489 12.0597C16.0398 12.0597 15.6804 11.9695 15.3707 11.7891C15.0611 11.6072 14.8196 11.3494 14.6463 11.0156C14.4744 10.6804 14.3885 10.2827 14.3885 9.82244C14.3885 9.46875 14.4396 9.15341 14.5419 8.87642C14.6456 8.59801 14.7905 8.36222 14.9766 8.16903C15.1626 7.97585 15.3793 7.82884 15.6264 7.72798C15.8736 7.62713 16.1413 7.5767 16.4297 7.5767C16.6768 7.5767 16.907 7.61293 17.12 7.68537C17.3331 7.75639 17.522 7.85724 17.6868 7.98793C17.853 8.11861 17.9886 8.27415 18.0938 8.45455C18.1989 8.63352 18.2663 8.83097 18.2962 9.04688H17.3587Z" fill="black"/>
</svg>
