<svg width="136" height="136" viewBox="0 0 136 136" fill="none" xmlns="http://www.w3.org/2000/svg">
    <rect width="136" height="136" rx="68" fill="var(--c-accent)" />
    <path
        d="M64.8904 88.9112C64.8904 89.4938 64.7781 90.0348 64.5535 90.5342C64.3493 91.0336 64.0635 91.4706 63.6959 91.8451C63.3488 92.1989 62.9302 92.4798 62.4402 92.6879C61.9501 92.896 61.4294 93 60.8781 93C60.3881 93 59.8878 92.9064 59.3773 92.7191C58.8873 92.5318 58.4483 92.2301 58.0603 91.8139L28.9634 60.8514V92.3758H21V51.082C21 50.2497 21.2246 49.5006 21.6738 48.8347C22.1435 48.1481 22.7356 47.6383 23.4503 47.3053C24.2058 46.9932 24.9817 46.9204 25.778 47.0869C26.5744 47.2325 27.2584 47.6071 27.8301 48.2105L56.9271 79.1418V47.6175H64.8904V88.9112Z"
        fill="var(--c-base)" />
    <path
        d="M118 82.5439C118 83.5427 117.826 84.6143 117.479 85.7588C117.153 86.9032 116.601 87.9644 115.825 88.9424C115.07 89.9204 114.08 90.7423 112.854 91.4082C111.629 92.0532 110.129 92.3758 108.352 92.3758H78.1219C77.5502 92.3758 77.0193 92.2717 76.5292 92.0636C76.0392 91.8556 75.6104 91.5746 75.2428 91.2209C74.8957 90.8464 74.62 90.4094 74.4159 89.91C74.2117 89.4106 74.1096 88.8696 74.1096 88.287V51.7063C74.1096 51.1444 74.2117 50.6138 74.4159 50.1144C74.62 49.615 74.8957 49.1781 75.2428 48.8035C75.6104 48.429 76.0392 48.1377 76.5292 47.9296C77.0193 47.7215 77.5502 47.6175 78.1219 47.6175H104.769C105.749 47.6175 106.8 47.7943 107.923 48.1481C109.046 48.5018 110.088 49.074 111.047 49.8647C112.027 50.6346 112.834 51.6438 113.467 52.8923C114.12 54.1408 114.447 55.6702 114.447 57.4805V59.0099C114.447 60.4457 114.212 61.9959 113.743 63.6605C113.273 65.3044 112.518 66.865 111.476 68.3424C112.375 68.9042 113.212 69.5804 113.988 70.3712C114.784 71.1619 115.478 72.0774 116.07 73.1178C116.663 74.1582 117.132 75.3339 117.479 76.6448C117.826 77.9557 118 79.4019 118 80.9833V82.5439ZM110.037 80.9833C110.037 79.9221 109.873 78.9753 109.547 78.143C109.22 77.2899 108.76 76.5616 108.168 75.9581C107.576 75.3547 106.861 74.8969 106.024 74.5848C105.187 74.2519 104.248 74.0854 103.207 74.0854H85.2583V65.9078H99.623C100.664 65.9078 101.604 65.7517 102.441 65.4396C103.278 65.1067 103.993 64.6385 104.585 64.0351C105.177 63.4316 105.626 62.7138 105.932 61.8814C106.259 61.0283 106.422 60.0711 106.422 59.0099V57.4805C106.422 56.3153 105.871 55.7326 104.769 55.7326H82.0729V84.2606H108.352C108.495 84.2606 108.669 84.2502 108.873 84.2294C109.077 84.2086 109.261 84.1461 109.424 84.0421C109.587 83.9381 109.73 83.7612 109.853 83.5115C109.975 83.2618 110.037 82.9185 110.037 82.4815V80.9833Z"
        fill="var(--c-base)" />
    <path
        d="M107.067 98.8172V107.614L29.0242 107.741L29.0242 98.9438H21L21 111.823C21 112.371 21.1119 112.899 21.3356 113.405C21.539 113.911 21.8238 114.365 22.1899 114.766C22.5764 115.146 23.0137 115.451 23.5018 115.684C23.99 115.895 24.4985 116 25.0274 116H111.064C111.613 116 112.122 115.884 112.59 115.652C113.078 115.42 113.495 115.114 113.841 114.734C114.207 114.354 114.491 113.911 114.695 113.405C114.898 112.878 115 112.329 115 111.76V98.8172H107.067Z"
        fill="var(--c-base)" />
    <path
        d="M107.067 39.1828V30.3857L29.0242 30.2591L29.0242 39.0562H21L21 26.177C21 25.6285 21.1119 25.1011 21.3356 24.5948C21.539 24.0885 21.8238 23.6349 22.1899 23.2341C22.5764 22.8544 23.0137 22.5485 23.5018 22.3164C23.99 22.1055 24.4985 22 25.0274 22L111.064 22C111.613 22 112.122 22.116 112.59 22.3481C113.078 22.5801 113.495 22.886 113.841 23.2658C114.207 23.6455 114.491 24.0885 114.695 24.5948C114.898 25.1222 115 25.6707 115 26.2403V39.1828H107.067Z"
        fill="var(--c-base)" />
</svg>