<svg width="204" height="19" viewBox="0 0 204 19" fill="none" xmlns="http://www.w3.org/2000/svg">
<path d="M17.5625 17.1992C17.5625 17.418 17.5195 17.6211 17.4336 17.8086C17.3555 17.9961 17.2461 18.1602 17.1055 18.3008C16.9727 18.4336 16.8125 18.5391 16.625 18.6172C16.4375 18.6953 16.2383 18.7344 16.0273 18.7344C15.8398 18.7344 15.6484 18.6992 15.4531 18.6289C15.2656 18.5586 15.0977 18.4453 14.9492 18.2891L3.81641 6.66406V18.5H0.769531V2.99609C0.769531 2.68359 0.855469 2.40234 1.02734 2.15234C1.20703 1.89453 1.43359 1.70313 1.70703 1.57812C1.99609 1.46094 2.29297 1.43359 2.59766 1.49609C2.90234 1.55078 3.16406 1.69141 3.38281 1.91797L14.5156 13.5312V1.69531H17.5625V17.1992ZM33.7812 14.3047C33.7812 14.7266 33.707 15.1836 33.5586 15.6758C33.4102 16.1602 33.168 16.6133 32.832 17.0352C32.5039 17.4492 32.0703 17.7969 31.5312 18.0781C31 18.3594 30.3516 18.5 29.5859 18.5H24.0898C23.668 18.5 23.2109 18.4258 22.7188 18.2773C22.2344 18.1289 21.7812 17.8906 21.3594 17.5625C20.9453 17.2266 20.5977 16.793 20.3164 16.2617C20.0352 15.7227 19.8945 15.0703 19.8945 14.3047C19.8945 13.8828 19.9688 13.4258 20.1172 12.9336C20.2656 12.4414 20.5039 11.9883 20.832 11.5742C21.168 11.1523 21.6016 10.8008 22.1328 10.5195C22.6719 10.2383 23.3242 10.0977 24.0898 10.0977H29.5859V13.0039H24.0898C23.6758 13.0039 23.3555 13.1328 23.1289 13.3906C22.9023 13.6406 22.7891 13.9531 22.7891 14.3281C22.7891 14.7266 22.918 15.0391 23.1758 15.2656C23.4414 15.4844 23.7539 15.5938 24.1133 15.5938H29.5859C30 15.5938 30.3203 15.4688 30.5469 15.2188C30.7734 14.9688 30.8867 14.6562 30.8867 14.2812V10.0273C30.8867 9.62891 30.7617 9.3125 30.5117 9.07812C30.2695 8.84375 29.9609 8.72656 29.5859 8.72656H22.8945V5.83203H29.5859C30.0078 5.83203 30.4609 5.90625 30.9453 6.05469C31.4375 6.20312 31.8906 6.44531 32.3047 6.78125C32.7266 7.10938 33.0781 7.54297 33.3594 8.08203C33.6406 8.61328 33.7812 9.26172 33.7812 10.0273V14.3047ZM48.6523 18.5H40.3906C39.9688 18.5 39.5078 18.4258 39.0078 18.2773C38.5078 18.1289 38.043 17.8867 37.6133 17.5508C37.1914 17.207 36.8359 16.7656 36.5469 16.2266C36.2656 15.6797 36.125 15.0117 36.125 14.2227V10.0977C36.125 9.80859 36.1562 9.50391 36.2188 9.18359C36.2891 8.86328 36.3945 8.54688 36.5352 8.23438C36.6758 7.91406 36.8555 7.60938 37.0742 7.32031C37.3008 7.03125 37.5703 6.77734 37.8828 6.55859C38.2031 6.33984 38.5703 6.16406 38.9844 6.03125C39.3984 5.89844 39.8672 5.83203 40.3906 5.83203H48.6523V8.87891H40.3906C39.9922 8.87891 39.6875 8.98047 39.4766 9.18359C39.2734 9.38672 39.1719 9.69922 39.1719 10.1211V14.2227C39.1719 14.6211 39.2773 14.9258 39.4883 15.1367C39.6992 15.3477 40.0078 15.4531 40.4141 15.4531H48.6523V18.5ZM65.2578 18.5H62.2109V10.0977C62.2109 9.69922 62.1094 9.39844 61.9062 9.19531C61.7031 8.98438 61.3984 8.87891 60.9922 8.87891H55.4961V5.83203H60.9922C61.2812 5.83203 61.5859 5.86719 61.9062 5.9375C62.2266 6 62.543 6.10156 62.8555 6.24219C63.1758 6.38281 63.4805 6.56641 63.7695 6.79297C64.0586 7.01172 64.3125 7.28125 64.5312 7.60156C64.75 7.91406 64.9258 8.27734 65.0586 8.69141C65.1914 9.10547 65.2578 9.57422 65.2578 10.0977V18.5ZM54.2656 18.5H51.2188V0.476562H54.2656V18.5ZM81.8281 14.2227C81.8281 14.7461 81.7617 15.2188 81.6289 15.6406C81.4961 16.0547 81.3203 16.4219 81.1016 16.7422C80.8828 17.0547 80.6289 17.3242 80.3398 17.5508C80.0508 17.7695 79.7461 17.9492 79.4258 18.0898C79.1133 18.2305 78.793 18.3359 78.4648 18.4062C78.1445 18.4688 77.8398 18.5 77.5508 18.5H72.0547C71.6328 18.5 71.1719 18.4258 70.6719 18.2773C70.1719 18.1289 69.707 17.8867 69.2773 17.5508C68.8555 17.207 68.5 16.7656 68.2109 16.2266C67.9297 15.6797 67.7891 15.0117 67.7891 14.2227V10.0977C67.7891 9.31641 67.9297 8.65625 68.2109 8.11719C68.5 7.57031 68.8555 7.12891 69.2773 6.79297C69.707 6.44922 70.1719 6.20312 70.6719 6.05469C71.1719 5.90625 71.6328 5.83203 72.0547 5.83203H77.5508C78.332 5.83203 78.9961 5.97266 79.543 6.25391C80.0898 6.53516 80.5312 6.89062 80.8672 7.32031C81.2031 7.74219 81.4453 8.20312 81.5938 8.70312C81.75 9.20312 81.8281 9.66797 81.8281 10.0977V14.2227ZM78.7812 10.1211C78.7812 9.69922 78.6758 9.38672 78.4648 9.18359C78.2539 8.98047 77.9492 8.87891 77.5508 8.87891H72.0781C71.6719 8.87891 71.3633 8.98438 71.1523 9.19531C70.9414 9.39844 70.8359 9.69922 70.8359 10.0977V14.2227C70.8359 14.6211 70.9414 14.9258 71.1523 15.1367C71.3633 15.3477 71.6719 15.4531 72.0781 15.4531H77.5508C77.9648 15.4531 78.2734 15.3477 78.4766 15.1367C78.6797 14.9258 78.7812 14.6211 78.7812 14.2227V10.1211ZM109.344 14.8086C109.344 15.1836 109.277 15.5859 109.145 16.0156C109.02 16.4453 108.809 16.8438 108.512 17.2109C108.223 17.5781 107.844 17.8867 107.375 18.1367C106.906 18.3789 106.332 18.5 105.652 18.5H94.0859C93.8672 18.5 93.6641 18.4609 93.4766 18.3828C93.2891 18.3047 93.125 18.1992 92.9844 18.0664C92.8516 17.9258 92.7461 17.7617 92.668 17.5742C92.5898 17.3867 92.5508 17.1836 92.5508 16.9648V3.23047C92.5508 3.01953 92.5898 2.82031 92.668 2.63281C92.7461 2.44531 92.8516 2.28125 92.9844 2.14062C93.125 2 93.2891 1.89063 93.4766 1.8125C93.6641 1.73437 93.8672 1.69531 94.0859 1.69531H104.281C104.656 1.69531 105.059 1.76172 105.488 1.89453C105.918 2.02734 106.316 2.24219 106.684 2.53906C107.059 2.82812 107.367 3.20703 107.609 3.67578C107.859 4.14453 107.984 4.71875 107.984 5.39844V5.97266C107.984 6.51172 107.895 7.09375 107.715 7.71875C107.535 8.33594 107.246 8.92188 106.848 9.47656C107.191 9.6875 107.512 9.94141 107.809 10.2383C108.113 10.5352 108.379 10.8789 108.605 11.2695C108.832 11.6602 109.012 12.1016 109.145 12.5938C109.277 13.0859 109.344 13.6289 109.344 14.2227V14.8086ZM106.297 14.2227C106.297 13.8242 106.234 13.4688 106.109 13.1562C105.984 12.8359 105.809 12.5625 105.582 12.3359C105.355 12.1094 105.082 11.9375 104.762 11.8203C104.441 11.6953 104.082 11.6328 103.684 11.6328H96.8164V8.5625H102.312C102.711 8.5625 103.07 8.50391 103.391 8.38672C103.711 8.26172 103.984 8.08594 104.211 7.85938C104.438 7.63281 104.609 7.36328 104.727 7.05078C104.852 6.73047 104.914 6.37109 104.914 5.97266V5.39844C104.914 4.96094 104.703 4.74219 104.281 4.74219H95.5977V15.4531H105.652C105.707 15.4531 105.773 15.4492 105.852 15.4414C105.93 15.4336 106 15.4102 106.062 15.3711C106.125 15.332 106.18 15.2656 106.227 15.1719C106.273 15.0781 106.297 14.9492 106.297 14.7852V14.2227ZM124.742 14.3047C124.742 14.7266 124.668 15.1836 124.52 15.6758C124.371 16.1602 124.129 16.6133 123.793 17.0352C123.465 17.4492 123.031 17.7969 122.492 18.0781C121.961 18.3594 121.312 18.5 120.547 18.5H115.051C114.629 18.5 114.172 18.4258 113.68 18.2773C113.195 18.1289 112.742 17.8906 112.32 17.5625C111.906 17.2266 111.559 16.793 111.277 16.2617C110.996 15.7227 110.855 15.0703 110.855 14.3047C110.855 13.8828 110.93 13.4258 111.078 12.9336C111.227 12.4414 111.465 11.9883 111.793 11.5742C112.129 11.1523 112.562 10.8008 113.094 10.5195C113.633 10.2383 114.285 10.0977 115.051 10.0977H120.547V13.0039H115.051C114.637 13.0039 114.316 13.1328 114.09 13.3906C113.863 13.6406 113.75 13.9531 113.75 14.3281C113.75 14.7266 113.879 15.0391 114.137 15.2656C114.402 15.4844 114.715 15.5938 115.074 15.5938H120.547C120.961 15.5938 121.281 15.4688 121.508 15.2188C121.734 14.9688 121.848 14.6562 121.848 14.2812V10.0273C121.848 9.62891 121.723 9.3125 121.473 9.07812C121.23 8.84375 120.922 8.72656 120.547 8.72656H113.855V5.83203H120.547C120.969 5.83203 121.422 5.90625 121.906 6.05469C122.398 6.20312 122.852 6.44531 123.266 6.78125C123.688 7.10938 124.039 7.54297 124.32 8.08203C124.602 8.61328 124.742 9.26172 124.742 10.0273V14.3047ZM138.43 8.87891H131.574C131.16 8.87891 130.848 8.98438 130.637 9.19531C130.426 9.39844 130.32 9.69922 130.32 10.0977V18.5H127.273V10.0977C127.273 9.57422 127.34 9.10547 127.473 8.69141C127.605 8.27734 127.781 7.91406 128 7.60156C128.227 7.28125 128.484 7.01172 128.773 6.79297C129.062 6.56641 129.363 6.38281 129.676 6.24219C129.996 6.10156 130.316 6 130.637 5.9375C130.965 5.86719 131.27 5.83203 131.551 5.83203H138.43V8.87891ZM154.414 14.2227C154.414 14.5117 154.379 14.8164 154.309 15.1367C154.246 15.457 154.145 15.7773 154.004 16.0977C153.863 16.4102 153.68 16.7109 153.453 17C153.234 17.2891 152.965 17.5469 152.645 17.7734C152.332 17.9922 151.969 18.168 151.555 18.3008C151.141 18.4336 150.672 18.5 150.148 18.5H144.652C144.363 18.5 144.059 18.4688 143.738 18.4062C143.418 18.3359 143.098 18.2305 142.777 18.0898C142.465 17.9492 142.164 17.7695 141.875 17.5508C141.586 17.3242 141.328 17.0547 141.102 16.7422C140.883 16.4219 140.707 16.0547 140.574 15.6406C140.441 15.2188 140.375 14.7461 140.375 14.2227V0.476562H143.422V14.2227C143.422 14.5977 143.539 14.8984 143.773 15.125C144.008 15.3438 144.301 15.4531 144.652 15.4531H150.148C150.531 15.4531 150.828 15.3398 151.039 15.1133C151.258 14.8867 151.367 14.5898 151.367 14.2227V10.0977C151.367 9.71484 151.254 9.41797 151.027 9.20703C150.801 8.98828 150.508 8.87891 150.148 8.87891H144.652V5.83203H150.148C150.438 5.83203 150.742 5.86719 151.062 5.9375C151.383 6 151.699 6.10156 152.012 6.24219C152.332 6.38281 152.637 6.56641 152.926 6.79297C153.215 7.01172 153.469 7.28125 153.688 7.60156C153.906 7.91406 154.082 8.27734 154.215 8.69141C154.348 9.10547 154.414 9.57422 154.414 10.0977V14.2227ZM170.094 14.3047C170.094 14.7266 170.02 15.1836 169.871 15.6758C169.723 16.1602 169.48 16.6133 169.145 17.0352C168.816 17.4492 168.383 17.7969 167.844 18.0781C167.312 18.3594 166.664 18.5 165.898 18.5H160.402C159.98 18.5 159.523 18.4258 159.031 18.2773C158.547 18.1289 158.094 17.8906 157.672 17.5625C157.258 17.2266 156.91 16.793 156.629 16.2617C156.348 15.7227 156.207 15.0703 156.207 14.3047C156.207 13.8828 156.281 13.4258 156.43 12.9336C156.578 12.4414 156.816 11.9883 157.145 11.5742C157.48 11.1523 157.914 10.8008 158.445 10.5195C158.984 10.2383 159.637 10.0977 160.402 10.0977H165.898V13.0039H160.402C159.988 13.0039 159.668 13.1328 159.441 13.3906C159.215 13.6406 159.102 13.9531 159.102 14.3281C159.102 14.7266 159.23 15.0391 159.488 15.2656C159.754 15.4844 160.066 15.5938 160.426 15.5938H165.898C166.312 15.5938 166.633 15.4688 166.859 15.2188C167.086 14.9688 167.199 14.6562 167.199 14.2812V10.0273C167.199 9.62891 167.074 9.3125 166.824 9.07812C166.582 8.84375 166.273 8.72656 165.898 8.72656H159.207V5.83203H165.898C166.32 5.83203 166.773 5.90625 167.258 6.05469C167.75 6.20312 168.203 6.44531 168.617 6.78125C169.039 7.10938 169.391 7.54297 169.672 8.08203C169.953 8.61328 170.094 9.26172 170.094 10.0273V14.3047ZM186.734 18.5H183.688V11.4688C183.688 11.0703 183.617 10.7148 183.477 10.4023C183.344 10.082 183.16 9.80859 182.926 9.58203C182.691 9.35547 182.414 9.18359 182.094 9.06641C181.781 8.94141 181.441 8.87891 181.074 8.87891H175.742V18.5H172.695V7.34375C172.695 7.13281 172.734 6.9375 172.812 6.75781C172.891 6.57031 173 6.41016 173.141 6.27734C173.281 6.13672 173.445 6.02734 173.633 5.94922C173.82 5.87109 174.02 5.83203 174.23 5.83203H181.098C181.48 5.83203 181.883 5.875 182.305 5.96094C182.734 6.04688 183.156 6.1875 183.57 6.38281C183.992 6.57031 184.391 6.8125 184.766 7.10938C185.148 7.39844 185.484 7.75391 185.773 8.17578C186.07 8.58984 186.305 9.07031 186.477 9.61719C186.648 10.1641 186.734 10.7812 186.734 11.4688V18.5ZM203.188 14.2227C203.188 14.7461 203.121 15.2188 202.988 15.6406C202.855 16.0547 202.68 16.4219 202.461 16.7422C202.242 17.0547 201.988 17.3242 201.699 17.5508C201.41 17.7695 201.105 17.9492 200.785 18.0898C200.473 18.2305 200.152 18.3359 199.824 18.4062C199.504 18.4688 199.199 18.5 198.91 18.5H193.414C192.992 18.5 192.531 18.4258 192.031 18.2773C191.531 18.1289 191.066 17.8867 190.637 17.5508C190.215 17.207 189.859 16.7656 189.57 16.2266C189.289 15.6797 189.148 15.0117 189.148 14.2227V10.0977C189.148 9.31641 189.289 8.65625 189.57 8.11719C189.859 7.57031 190.215 7.12891 190.637 6.79297C191.066 6.44922 191.531 6.20312 192.031 6.05469C192.531 5.90625 192.992 5.83203 193.414 5.83203H198.91C199.691 5.83203 200.355 5.97266 200.902 6.25391C201.449 6.53516 201.891 6.89062 202.227 7.32031C202.562 7.74219 202.805 8.20312 202.953 8.70312C203.109 9.20312 203.188 9.66797 203.188 10.0977V14.2227ZM200.141 10.1211C200.141 9.69922 200.035 9.38672 199.824 9.18359C199.613 8.98047 199.309 8.87891 198.91 8.87891H193.438C193.031 8.87891 192.723 8.98438 192.512 9.19531C192.301 9.39844 192.195 9.69922 192.195 10.0977V14.2227C192.195 14.6211 192.301 14.9258 192.512 15.1367C192.723 15.3477 193.031 15.4531 193.438 15.4531H198.91C199.324 15.4531 199.633 15.3477 199.836 15.1367C200.039 14.9258 200.141 14.6211 200.141 14.2227V10.1211Z" fill="#1AE1EE"/>
</svg>
