<svg width="768" height="136" viewBox="0 0 768 136" fill="none" xmlns="http://www.w3.org/2000/svg">
<path d="M428.18 105.225C428.18 106.364 427.956 107.422 427.508 108.399C427.101 109.375 426.532 110.23 425.799 110.962C425.108 111.654 424.273 112.203 423.297 112.61C422.32 113.017 421.283 113.221 420.184 113.221C419.208 113.221 418.211 113.038 417.193 112.671C416.217 112.305 415.342 111.715 414.569 110.901L356.585 50.3545V112H340.716V31.2505C340.716 29.6229 341.164 28.158 342.059 26.856C342.995 25.5132 344.175 24.5163 345.599 23.8652C347.105 23.2549 348.651 23.1125 350.238 23.438C351.825 23.7228 353.188 24.4552 354.327 25.6353L412.311 86.1211V24.4756H428.18V105.225ZM511.402 90.1494C511.402 92.3467 511.016 94.7271 510.243 97.2905C509.47 99.8133 508.208 102.173 506.458 104.371C504.75 106.527 502.491 108.338 499.684 109.803C496.917 111.268 493.539 112 489.552 112H460.926C458.729 112 456.349 111.613 453.785 110.84C451.262 110.067 448.902 108.826 446.705 107.117C444.549 105.368 442.738 103.109 441.273 100.342C439.808 97.5347 439.076 94.137 439.076 90.1494C439.076 87.9521 439.462 85.5718 440.235 83.0083C441.008 80.4448 442.25 78.0848 443.958 75.9282C445.708 73.731 447.966 71.8999 450.733 70.4351C453.541 68.9702 456.939 68.2378 460.926 68.2378H489.552V83.3745H460.926C458.77 83.3745 457.101 84.0459 455.921 85.3887C454.741 86.6908 454.151 88.3184 454.151 90.2715C454.151 92.3467 454.823 93.9743 456.166 95.1543C457.549 96.2936 459.177 96.8633 461.048 96.8633H489.552C491.708 96.8633 493.377 96.2122 494.557 94.9102C495.737 93.6081 496.327 91.9805 496.327 90.0273V67.8716C496.327 65.7964 495.676 64.1484 494.374 62.9277C493.112 61.707 491.505 61.0967 489.552 61.0967H454.701V46.021H489.552C491.749 46.021 494.109 46.4076 496.632 47.1807C499.195 47.9538 501.555 49.2152 503.712 50.9648C505.909 52.6738 507.74 54.9321 509.205 57.7397C510.67 60.5067 511.402 63.884 511.402 67.8716V90.1494ZM587.606 112H544.576C542.379 112 539.978 111.613 537.374 110.84C534.77 110.067 532.349 108.806 530.111 107.056C527.914 105.266 526.062 102.967 524.557 100.159C523.092 97.3109 522.359 93.8319 522.359 89.7222V68.2378C522.359 66.7323 522.522 65.1453 522.848 63.4771C523.214 61.8088 523.763 60.1608 524.496 58.5332C525.228 56.8649 526.164 55.278 527.303 53.7725C528.483 52.2669 529.887 50.9445 531.515 49.8052C533.183 48.6659 535.095 47.7503 537.252 47.0586C539.409 46.3669 541.85 46.021 544.576 46.021H587.606V61.8901H544.576C542.501 61.8901 540.914 62.4191 539.815 63.4771C538.757 64.535 538.229 66.1626 538.229 68.3599V89.7222C538.229 91.7974 538.778 93.3843 539.876 94.4829C540.975 95.5815 542.582 96.1309 544.698 96.1309H587.606V112ZM672.843 112H656.974V68.2378C656.974 66.1626 656.445 64.596 655.387 63.5381C654.329 62.4395 652.742 61.8901 650.626 61.8901H622V46.021H650.626C652.132 46.021 653.718 46.2041 655.387 46.5703C657.055 46.8958 658.703 47.4248 660.331 48.1572C661.999 48.8896 663.586 49.8459 665.091 51.0259C666.597 52.1652 667.919 53.569 669.059 55.2373C670.198 56.8649 671.113 58.757 671.805 60.9136C672.497 63.0701 672.843 65.5116 672.843 68.2378V112ZM615.592 112H599.723V18.1279H615.592V112ZM757.896 89.7222C757.896 92.4484 757.551 94.9102 756.859 97.1074C756.167 99.264 755.252 101.176 754.112 102.845C752.973 104.472 751.651 105.876 750.145 107.056C748.639 108.195 747.053 109.131 745.384 109.864C743.757 110.596 742.088 111.146 740.379 111.512C738.711 111.837 737.124 112 735.619 112H706.993C704.796 112 702.395 111.613 699.791 110.84C697.187 110.067 694.766 108.806 692.528 107.056C690.331 105.266 688.479 102.967 686.974 100.159C685.509 97.3109 684.776 93.8319 684.776 89.7222V68.2378C684.776 64.1688 685.509 60.7305 686.974 57.9229C688.479 55.0745 690.331 52.7756 692.528 51.0259C694.766 49.2355 697.187 47.9538 699.791 47.1807C702.395 46.4076 704.796 46.021 706.993 46.021H735.619C739.688 46.021 743.146 46.7534 745.995 48.2183C748.843 49.6831 751.142 51.5345 752.892 53.7725C754.641 55.9697 755.903 58.3704 756.676 60.9746C757.49 63.5788 757.896 65.9998 757.896 68.2378V89.7222ZM742.027 68.3599C742.027 66.1626 741.478 64.535 740.379 63.4771C739.281 62.4191 737.694 61.8901 735.619 61.8901H707.115C704.999 61.8901 703.392 62.4395 702.293 63.5381C701.195 64.596 700.646 66.1626 700.646 68.2378V89.7222C700.646 91.7974 701.195 93.3843 702.293 94.4829C703.392 95.5815 704.999 96.1309 707.115 96.1309H735.619C737.775 96.1309 739.382 95.5815 740.44 94.4829C741.498 93.3843 742.027 91.7974 742.027 89.7222V68.3599Z" fill="#FF0D0D"/>
</svg>
