<svg width="72" height="80" viewBox="0 0 72 80" fill="none" xmlns="http://www.w3.org/2000/svg">
    <path fill-rule="evenodd" clip-rule="evenodd"
        d="M39.118 79.1768C37.189 80.2748 34.812 80.2748 32.882 79.1768L3.118 62.2487C1.188 61.1507 0 59.1237 0 56.9287V23.0718C0 20.8768 1.188 18.8488 3.118 17.7518L32.882 0.82275C34.812 -0.27425 37.189 -0.27425 39.118 0.82275L68.882 17.7518C70.812 18.8488 72 20.8768 72 23.0718V56.9287C72 59.1237 70.812 61.1507 68.882 62.2487L39.118 79.1768ZM20 42.9997H40V36.9997H20V42.9997ZM52 24.9998H20V30.9998H52V24.9998ZM52 48.9997H20V54.9997H52V48.9997Z"
        fill="#062164" />
</svg>