<svg width="24" height="24" viewBox="0 0 24 24" fill="none" xmlns="http://www.w3.org/2000/svg">
<path d="M20 2H4C2.9 2 2 2.9 2 4V22L6 18H20C21.1 18 22 17.1 22 16V4C22 2.9 21.1 2 20 2ZM20 16H5.2L4 17.2V4H20V16Z" fill="black"/>
<path d="M6.37926 12V7.63636H9.3196V8.39702H7.30185V9.43679H9.16832V10.1974H7.30185V11.2393H9.32812V12H6.37926ZM12.4203 8.89134C12.4032 8.71946 12.3301 8.58594 12.2008 8.49077C12.0716 8.3956 11.8961 8.34801 11.6745 8.34801C11.524 8.34801 11.3968 8.36932 11.2931 8.41193C11.1895 8.45312 11.1099 8.51065 11.0545 8.58452C11.0005 8.65838 10.9735 8.74219 10.9735 8.83594C10.9707 8.91406 10.987 8.98224 11.0225 9.04048C11.0595 9.09872 11.1099 9.14915 11.1738 9.19176C11.2377 9.23295 11.3116 9.26918 11.3954 9.30043C11.4792 9.33026 11.5687 9.35582 11.6639 9.37713L12.0559 9.47088C12.2463 9.51349 12.421 9.57031 12.5801 9.64134C12.7392 9.71236 12.877 9.79972 12.9934 9.90341C13.1099 10.0071 13.2001 10.1293 13.264 10.2699C13.3294 10.4105 13.3627 10.5717 13.3642 10.7536C13.3627 11.0206 13.2946 11.2521 13.1596 11.4482C13.0261 11.6428 12.8329 11.794 12.5801 11.902C12.3287 12.0085 12.0254 12.0618 11.6703 12.0618C11.318 12.0618 11.0112 12.0078 10.7498 11.8999C10.4899 11.7919 10.2868 11.6321 10.1404 11.4205C9.99556 11.2074 9.91957 10.9439 9.91246 10.63H10.8052C10.8152 10.7763 10.8571 10.8984 10.9309 10.9964C11.0062 11.093 11.1064 11.1662 11.2314 11.2159C11.3578 11.2642 11.5005 11.2884 11.6596 11.2884C11.8159 11.2884 11.9515 11.2656 12.0666 11.2202C12.1831 11.1747 12.2733 11.1115 12.3372 11.0305C12.4011 10.9496 12.4331 10.8565 12.4331 10.7514C12.4331 10.6534 12.4039 10.571 12.3457 10.5043C12.2889 10.4375 12.2051 10.3807 12.0943 10.3338C11.9849 10.2869 11.8507 10.2443 11.6916 10.206L11.2164 10.0866C10.8485 9.99716 10.5581 9.85724 10.345 9.6669C10.1319 9.47656 10.0261 9.22017 10.0275 8.89773C10.0261 8.63352 10.0964 8.4027 10.2385 8.20526C10.3819 8.00781 10.5787 7.85369 10.8287 7.7429C11.0787 7.6321 11.3627 7.5767 11.6809 7.5767C12.0048 7.5767 12.2875 7.6321 12.5289 7.7429C12.7718 7.85369 12.9608 8.00781 13.0957 8.20526C13.2306 8.4027 13.3002 8.63139 13.3045 8.89134H12.4203ZM13.9847 12V7.63636H15.7063C16.0373 7.63636 16.3192 7.69957 16.5522 7.82599C16.7852 7.95099 16.9627 8.125 17.0849 8.34801C17.2085 8.5696 17.2702 8.82528 17.2702 9.11506C17.2702 9.40483 17.2077 9.66051 17.0827 9.8821C16.9577 10.1037 16.7766 10.2763 16.5394 10.3999C16.3036 10.5234 16.0181 10.5852 15.6829 10.5852H14.5856V9.84588H15.5337C15.7113 9.84588 15.8576 9.81534 15.9727 9.75426C16.0891 9.69176 16.1758 9.60582 16.2326 9.49645C16.2908 9.38565 16.32 9.25852 16.32 9.11506C16.32 8.97017 16.2908 8.84375 16.2326 8.7358C16.1758 8.62642 16.0891 8.5419 15.9727 8.48224C15.8562 8.42116 15.7085 8.39062 15.5295 8.39062H14.9073V12H13.9847Z" fill="black"/>
</svg>
