<svg class="logo-svg svg-this skip-lazy replaced-svg svg-replaced-0" id="svg-replaced-0" version="1.1"
    viewBox="0 0 120 31.1975617" height="31.1975617px" width="120px" xmlns:xlink="http://www.w3.org/1999/xlink"
    xmlns="http://www.w3.org/2000/svg">
    <title>expertasete-logo</title>
    <g fill-rule="evenodd" fill="none" stroke-width="1" stroke="none" id="Page-1">
        <g id="expertasete-logo">
            <g fill="#FEFEFE" transform="translate(0, 17.4814)" id="expert">
                <path id="Fill-1"
                    d="M19.5891525,5.18154552 L21.8060256,1.67737723 C22.0128689,1.35981198 22.0676215,1.22962239 22.0676215,1.08118193 C22.0676215,0.763616675 21.8826793,0.595708611 20.9871696,0.595708611 L20.4092252,0.595708611 L20.4092252,0.29761096 L24.4536195,0.29761096 L24.4536195,0.595708611 L23.8379566,0.595708611 C23.056819,0.595708611 22.702752,0.913273863 22.1795602,1.73334658 L19.7935623,5.49789405 L24.061834,13.1194601 L25.5730065,13.1194601 L25.5730065,13.4187745 L20.1476293,13.4187745 L20.1476293,13.1194601 L21.8449608,13.1194601 L18.6023884,7.28647995 L15.8623235,11.5730025 C15.2284097,12.5597666 15.2089421,12.6364202 15.2089421,12.7848607 C15.2089421,13.0087381 15.470538,13.1194601 15.9365437,13.1194601 L16.8685552,13.1194601 L16.8685552,13.4187745 L12.4883448,13.4187745 L12.4883448,13.1194601 L12.9543505,13.1194601 C13.8498602,13.1194601 14.4825572,13.0452399 15.0434675,12.1691978 L18.4150128,6.95066382 L14.7818716,0.595708611 L13.1611938,0.595708611 L13.1611938,0.29761096 L18.6194226,0.29761096 L18.6194226,0.595708611 L17.0559308,0.595708611 L19.5891525,5.18154552 Z">
                </path>
                <path id="Fill-3"
                    d="M29.8196205,6.87717363 C30.0994673,7.06211584 30.6396932,7.26774239 31.2553561,7.26774239 C32.4854652,7.26774239 34.292302,6.61557773 34.292302,4.10060694 C34.292302,1.65863966 33.1753483,0.596438646 30.9584752,0.596438646 L29.8196205,0.596438646 L29.8196205,6.87717363 Z M27.9190959,0.596438646 L26.0745406,0.596438646 L26.0745406,0.298340995 L31.3855457,0.298340995 C34.1608957,0.298340995 36.3047653,1.2486033 36.3047653,3.93148215 C36.3047653,6.55960838 33.8262963,7.56584004 31.5704879,7.56584004 C30.9390076,7.56584004 30.1931551,7.43565045 29.8196205,7.24949151 L29.8196205,13.1201901 L31.7201451,13.1201901 L31.7201451,13.4182878 L26.0745406,13.4182878 L26.0745406,13.1201901 L27.9190959,13.1201901 L27.9190959,0.596438646 Z">
                </path>
                <path id="Fill-5"
                    d="M39.0995829,0.596316973 L37.4594374,0.596316973 L37.4594374,0.298219323 L47.3927812,0.298219323 L47.6166586,3.46535477 L47.3197777,3.46535477 C47.3197777,1.32391858 45.9035096,0.596316973 43.9263314,0.596316973 L41.0001075,0.596316973 L41.0001075,6.59720518 L42.3981246,6.59720518 C44.3375844,6.59720518 44.5249601,5.42306546 44.5249601,4.21242398 L44.821841,4.21242398 L44.821841,9.16936205 L44.5249601,9.16936205 C44.5249601,7.75309403 44.3375844,6.89530283 42.3810905,6.89530283 L41.0001075,6.89530283 L41.0001075,13.1200685 L43.5552302,13.1200685 C46.5739252,13.1200685 48.0279117,12.7660015 48.0279117,9.59764929 L48.3247926,9.59764929 L48.3247926,13.4181661 L37.4594374,13.4181661 L37.4594374,13.1200685 L39.0995829,13.1200685 L39.0995829,0.596316973 Z">
                </path>
                <path id="Fill-7"
                    d="M1.64014544,0.596316973 L0,0.596316973 L0,0.298219323 L9.93334374,0.298219323 L10.1572212,3.46535477 L9.86034024,3.46535477 C9.86034024,1.32391858 8.44407222,0.596316973 6.46689392,0.596316973 L3.54067005,0.596316973 L3.54067005,6.59720518 L4.93868719,6.59720518 C6.87814701,6.59720518 7.06308922,5.42306546 7.06308922,4.21242398 L7.3624036,4.21242398 L7.3624036,9.16936205 L7.06308922,9.16936205 C7.06308922,7.75309403 6.87814701,6.89530283 4.92165304,6.89530283 L3.54067005,6.89530283 L3.54067005,13.1200685 L6.09579277,13.1200685 C9.11448775,13.1200685 10.5684742,12.7660015 10.5684742,9.59764929 L10.8653552,9.59764929 L10.8653552,13.4181661 L0,13.4181661 L0,13.1200685 L1.64014544,13.1200685 L1.64014544,0.596316973 Z">
                </path>
                <path id="Fill-10"
                    d="M53.802489,6.52310662 L54.7369339,6.52310662 C56.9343394,6.52310662 58.2204179,5.75900326 58.2204179,3.59688275 C58.2204179,2.10517777 57.7166937,0.596438646 55.0715333,0.596438646 L53.802489,0.596438646 L53.802489,6.52310662 Z M51.9031811,0.596438646 L50.040375,0.596438646 L50.040375,0.298340995 L55.7601997,0.298340995 C57.9040693,0.298340995 60.2328812,0.782597586 60.2328812,3.59688275 C60.2328812,5.87094197 57.604755,6.46713727 56.245673,6.63504533 L56.245673,6.67154709 C58.3895427,6.85770603 59.5247472,7.32371174 59.8058107,9.78514663 L60.0661898,12.0579891 C60.1975962,13.1566919 60.7183545,13.2333456 61.0334863,13.2333456 C61.3717359,13.2333456 61.6138642,13.1201901 61.7988064,13.0447532 L61.9107451,13.2880982 C61.5372105,13.4182878 61.0724215,13.5302265 60.3825384,13.5302265 C58.1084792,13.5302265 57.9782896,12.319585 57.7166937,10.1757154 L57.5877208,9.05754501 C57.4575312,7.88218856 57.1204984,6.82120427 55.0143472,6.82120427 L53.802489,6.82120427 L53.802489,13.1201901 L55.7054471,13.1201901 L55.7054471,13.4182878 L50.040375,13.4182878 L50.040375,13.1201901 L51.9031811,13.1201901 L51.9031811,0.596438646 Z">
                </path>
                <path id="Fill-12"
                    d="M67.2767462,0.596316973 L66.8873941,0.596316973 C63.5669513,0.596316973 62.8235323,1.10004117 62.8235323,4.15645463 L62.5242179,4.15645463 L62.5242179,0.298219323 L73.9310157,0.298219323 L73.9310157,4.15645463 L73.6317014,4.15645463 C73.6317014,1.10004117 72.8870656,0.596316973 69.5885238,0.596316973 L69.1772708,0.596316973 L69.1772708,13.1200685 L71.0984797,13.1200685 L71.0984797,13.4181661 L65.3567539,13.4181661 L65.3567539,13.1200685 L67.2767462,13.1200685 L67.2767462,0.596316973 Z">
                </path>
                <path id="Fill-14"
                    d="M79.1469946,3.22346982 L79.1117096,3.22346982 L77.2841885,8.87150775 L81.0669868,8.87150775 L79.1469946,3.22346982 Z M81.1618914,9.1696054 L77.1722497,9.1696054 L76.4069297,11.5166681 C76.2767401,11.8902027 76.1295163,12.3367408 76.1295163,12.6543061 C76.1295163,12.9146853 76.352177,13.1203118 76.9483723,13.1203118 L77.9181022,13.1203118 L77.9181022,13.4184095 L74.0781178,13.4184095 L74.0781178,13.1203118 L74.6743131,13.1203118 C75.2522575,13.1203118 75.4943858,13.0643425 75.8484528,12.0191756 L79.8551286,0.000365017531 L80.0619719,0.000365017531 L84.589406,13.1203118 L86.1358636,13.1203118 L86.1358636,13.4184095 L80.6752013,13.4184095 L80.6752013,13.1203118 L82.5027224,13.1203118 L81.1618914,9.1696054 Z">
                </path>
                <path id="Fill-16"
                    d="M86.9558146,8.81517337 L87.2526956,8.81517337 C87.2526956,11.9458071 89.0996843,13.4180444 91.336025,13.4180444 C93.1246109,13.4180444 94.4106893,12.2816232 94.4106893,10.604976 C94.4106893,8.66551619 93.403241,8.08757176 91.2618048,7.75297236 C88.3343642,7.28696664 86.9558146,6.80271005 86.9558146,3.67085964 C86.9558146,1.54645761 88.352615,0 90.4392986,0 C92.3592908,0 93.0868924,1.13642125 93.7220229,1.13642125 C94.1490934,1.13642125 94.2062795,0.671632257 94.2610321,0.428287236 L94.5603465,0.428287236 L94.5603465,4.34249189 L94.2610321,4.34249189 C94.0919074,2.21687314 92.9372352,0.29809765 90.4392986,0.29809765 C88.8563392,0.29809765 87.7381689,1.34204779 87.7381689,3.05641346 C87.7381689,4.73427738 88.3720826,5.10537853 91.4662146,5.66507208 C94.1868119,6.1505454 95.3037656,7.02537075 95.3037656,9.44908715 C95.3037656,11.8898377 93.9641512,13.7161421 91.2618048,13.7161421 C89.3965652,13.7161421 88.4098011,12.7476289 87.7211347,12.7476289 C87.2721632,12.7476289 87.2526956,13.2136346 87.2526956,13.5299831 L86.9558146,13.5299831 L86.9558146,8.81517337 Z">
                </path>
                <path id="Fill-18"
                    d="M101.304654,0.596316973 L100.915302,0.596316973 C97.5972924,0.596316973 96.8514399,1.10004117 96.8514399,4.15645463 L96.554559,4.15645463 L96.554559,0.298219323 L107.958923,0.298219323 L107.958923,4.15645463 L107.662042,4.15645463 C107.662042,1.10004117 106.914973,0.596316973 103.616431,0.596316973 L103.205178,0.596316973 L103.205178,13.1200685 L105.126387,13.1200685 L105.126387,13.4181661 L99.3846616,13.4181661 L99.3846616,13.1200685 L101.304654,13.1200685 L101.304654,0.596316973 Z">
                </path>
                <path id="Fill-20"
                    d="M110.622578,0.596316973 L108.982433,0.596316973 L108.982433,0.298219323 L118.915776,0.298219323 L119.139654,3.46535477 L118.842773,3.46535477 C118.842773,1.32391858 117.426505,0.596316973 115.45176,0.596316973 L112.523103,0.596316973 L112.523103,6.59720518 L113.923553,6.59720518 C115.86058,6.59720518 116.045522,5.42306546 116.045522,4.21242398 L116.344836,4.21242398 L116.344836,9.16936205 L116.045522,9.16936205 C116.045522,7.75309403 115.86058,6.89530283 113.904086,6.89530283 L112.523103,6.89530283 L112.523103,13.1200685 L115.078225,13.1200685 C118.09692,13.1200685 119.550907,12.7660015 119.550907,9.59764929 L119.847788,9.59764929 L119.847788,13.4181661 L108.982433,13.4181661 L108.982433,13.1200685 L110.622578,13.1200685 L110.622578,0.596316973 Z">
                </path>
            </g>
            <g fill="#F4811F" transform="translate(0.0097, 0)" id="expert-stars">
                <polygon
                    points="61.7418637 5.49108039 60.0043802 0 58.2267448 5.49108039 52.3572629 5.49108039 57.141426 9.05000132 55.2761865 14.6883054 60.0043802 11.2194222 64.7240569 14.6883054 62.8819351 9.05000132 67.6283797 5.49108039"
                    id="Fill-22"></polygon>
                <polygon
                    points="35.5656048 5.49108039 33.8232545 0 32.0456191 5.49108039 26.1785706 5.49108039 30.9603003 9.05000132 29.0974942 14.6883054 33.8232545 11.2194222 38.5453646 14.6883054 36.7056762 9.05000132 41.4496874 5.49108039"
                    id="Fill-24"></polygon>
                <polygon
                    points="9.38460072 5.49108039 7.64468382 0 5.86704845 5.49108039 0 5.49108039 4.78172966 9.05000132 2.91892352 14.6883054 7.64468382 11.2194222 12.3667939 14.6883054 10.5246721 9.05000132 15.2711168 5.49108039"
                    id="Fill-26"></polygon>
                <polygon
                    points="87.9228677 5.49108039 86.1829508 0 84.4077489 5.49108039 78.5407005 5.49108039 83.3224301 9.05000132 81.459624 14.6883054 86.1829508 11.2194222 90.9074944 14.6883054 89.0629392 9.05000132 93.8093838 5.49108039"
                    id="Fill-28"></polygon>
                <polygon
                    points="114.10375 5.49108039 112.366267 0 110.588631 5.49108039 104.719149 5.49108039 109.503313 9.05000132 107.638073 14.6883054 112.366267 11.2194222 117.085943 14.6883054 115.243822 9.05000132 119.990266 5.49108039"
                    id="Fill-30"></polygon>
            </g>
        </g>
    </g>
</svg>