<svg width="148" height="148" viewBox="0 0 148 148" fill="none" xmlns="http://www.w3.org/2000/svg">
<g clip-path="url(#clip0_1_2)">
<rect width="148" height="148" rx="12" fill="#13CB67"/>
<rect x="8" y="8" width="132" height="132" rx="12" fill="#302323"/>
<path d="M78.87 25.9C80.3167 26.18 81.39 26.67 82.09 27.37C82.8367 28.07 83.21 28.8867 83.21 29.82C83.21 31.36 82.7667 32.48 81.88 33.18C81.04 33.88 79.6867 34.16 77.82 34.02C73.62 33.6933 70.33 33.4833 67.95 33.39C65.6167 33.25 62.5367 33.1567 58.71 33.11C56.9833 41.6967 55.3967 50.33 53.95 59.01C53.4367 62.1833 52.9 65.87 52.34 70.07C51.78 74.2233 51.4067 77.5833 51.22 80.15C51.1267 81.5033 50.5667 82.5533 49.54 83.3C48.5133 84 47.2767 84.35 45.83 84.35C44.29 84.35 43.1 83.9767 42.26 83.23C41.42 82.4833 41 81.5033 41 80.29C41 79.17 41.1633 77.3267 41.49 74.76C41.8633 72.1467 42.2833 69.4167 42.75 66.57C43.2633 63.7233 43.66 61.25 43.94 59.15C44.4533 55.6033 45.0367 52.08 45.69 48.58C46.3433 45.08 46.9967 41.7667 47.65 38.64C47.79 37.94 47.9533 37.1467 48.14 36.26C48.3267 35.3267 48.5367 34.3 48.77 33.18C44.1967 33.32 40.6033 33.6933 37.99 34.3C35.3767 34.9067 33.51 35.77 32.39 36.89C31.3167 37.9633 30.78 39.3633 30.78 41.09C30.78 42.6767 31.2467 44.1933 32.18 45.64C32.3667 45.9667 32.46 46.3167 32.46 46.69C32.46 47.5767 31.9233 48.4167 30.85 49.21C29.8233 49.9567 28.75 50.33 27.63 50.33C26.8367 50.33 26.1833 50.0967 25.67 49.63C24.7367 48.8367 23.9667 47.7167 23.36 46.27C22.7533 44.7767 22.45 43.0967 22.45 41.23C22.45 37.2633 23.7333 34.09 26.3 31.71C28.9133 29.2833 32.8567 27.51 38.13 26.39C43.45 25.27 50.2633 24.71 58.57 24.71C63.7033 24.71 67.7867 24.8033 70.82 24.99C73.9 25.1767 76.5833 25.48 78.87 25.9Z" fill="white"/>
<path d="M125.44 98.53C126.047 98.53 126.513 98.8333 126.84 99.44C127.213 100 127.4 100.723 127.4 101.61C127.4 102.683 127.237 103.523 126.91 104.13C126.583 104.737 126.07 105.273 125.37 105.74C122.617 107.56 118.23 110.547 112.21 114.7C110.39 124.36 108.033 131.967 105.14 137.52C102.247 143.073 98.5833 145.85 94.15 145.85C91.77 145.85 89.8333 145.103 88.34 143.61C86.8467 142.163 86.1 140.25 86.1 137.87C86.1 135.677 86.59 133.46 87.57 131.22C88.55 128.98 90.37 126.39 93.03 123.45C95.7367 120.51 99.54 117.15 104.44 113.37L104.65 112.04C100.963 113.58 97.3467 114.35 93.8 114.35C88.5733 114.35 83.9767 113.347 80.01 111.34C76.0433 109.287 72.9633 106.393 70.77 102.66C68.5767 98.9267 67.48 94.5867 67.48 89.64C67.48 82.7333 68.7867 76.6433 71.4 71.37C74.0133 66.05 77.6067 61.9433 82.18 59.05C86.8 56.11 91.9567 54.64 97.65 54.64C103.11 54.64 107.193 55.9233 109.9 58.49C112.653 61.01 114.03 64.37 114.03 68.57C114.03 71.3233 113.517 73.54 112.49 75.22C111.51 76.8533 110.087 77.67 108.22 77.67C106.96 77.67 105.933 77.3667 105.14 76.76C104.393 76.1533 104.02 75.3133 104.02 74.24C104.02 73.7733 104.113 72.98 104.3 71.86C104.58 70.5533 104.72 69.5267 104.72 68.78C104.72 66.82 104.113 65.3033 102.9 64.23C101.733 63.1567 99.75 62.62 96.95 62.62C93.5433 62.62 90.37 63.6 87.43 65.56C84.5367 67.52 82.2033 70.46 80.43 74.38C78.6567 78.2533 77.77 82.92 77.77 88.38C77.77 93.98 79.2867 98.32 82.32 101.4C85.4 104.433 89.8333 105.95 95.62 105.95C98.84 105.95 102.2 105.227 105.7 103.78L106.68 95.24H99.54C98.2333 95.24 97.23 94.9367 96.53 94.33C95.83 93.6767 95.48 92.6267 95.48 91.18C95.48 89.8733 95.83 88.8467 96.53 88.1C97.23 87.3533 98.1633 86.98 99.33 86.98H112.42C113.447 86.98 114.287 87.33 114.94 88.03C115.64 88.6833 115.92 89.64 115.78 90.9C115.64 92.3933 115.173 95.7767 114.38 101.05L113.61 106.37C117.343 103.57 120.75 101.143 123.83 99.09C124.437 98.7167 124.973 98.53 125.44 98.53ZM94.92 139.06C96.1333 139.06 97.4633 137.683 98.91 134.93C100.357 132.177 101.71 127.743 102.97 121.63C99.4233 124.663 96.8567 127.393 95.27 129.82C93.73 132.293 92.96 134.463 92.96 136.33C92.96 138.15 93.6133 139.06 94.92 139.06Z" fill="white"/>
</g>
<defs>
<clipPath id="clip0_1_2">
<rect width="148" height="148" fill="white"/>
</clipPath>
</defs>
</svg>
