<svg width="125" height="42" viewBox="0 0 125 42" fill="black" xmlns="http://www.w3.org/2000/svg">
    <path fill="#000000" fill-rule="evenodd" clip-rule="evenodd"
        d="M37.3276 1.26018L25.8789 9.57294C25.084 10.2652 24.7681 10.0716 25.0427 9.06729L27.7514 3.86722C28.1566 2.47541 27.3517 2.44595 26.8519 2.62884C26.6847 2.69058 26.5004 2.78226 26.3085 2.88657L11.7171 9.79349C11.5372 9.89161 11.3391 9.99731 11.126 10.111C10.2424 10.5824 9.10175 11.1909 7.94187 11.9629C3.30909 14.491 0.257487 19.3072 0.0183884 24.9172L0.0151906 25.0037C-0.348442 33.54 5.8509 40.7365 14.9004 41.1406C20.4684 41.3896 25.2135 38.9492 28.125 35.0459C31.0291 31.4081 32.6991 24.9898 34.5655 17.8166C35.4997 14.2259 36.4832 10.446 37.6954 6.73108C37.6954 6.73108 38.733 3.34895 39.2387 1.29409C39.1762 0.686709 38.945 0.479492 38.6572 0.479492C38.2088 0.479492 37.6236 0.982568 37.3276 1.26018ZM8.34311 25.6246V25.5542C8.34311 21.3255 11.3029 17.8725 15.5701 17.8725C19.8382 17.8725 22.8669 21.3961 22.8669 25.6246V25.6955C22.8669 29.924 19.9069 33.3782 15.6393 33.3782C11.3716 33.3782 8.34311 29.8534 8.34311 25.6246Z" />
    <path fill="#000000" fill-rule="evenodd" clip-rule="evenodd"
        d="M36.2529 25.0037L36.2565 24.9172C36.6097 16.6264 43.1055 10.0693 51.7699 10.0693C52.0264 10.0693 52.2852 10.0752 52.5453 10.0867C61.5948 10.4908 67.7939 17.6875 67.43 26.2241L67.4266 26.3099C67.0628 34.8467 60.1871 41.5452 51.1381 41.1406C42.0886 40.7365 35.889 33.54 36.2529 25.0037ZM44.5808 25.5542V25.6246C44.5808 29.8534 47.6096 33.3782 51.8772 33.3782C56.1449 33.3782 59.1044 29.924 59.1044 25.6955V25.6246C59.1044 21.3961 56.0759 17.8725 51.8082 17.8725C47.5404 17.8725 44.5808 21.3255 44.5808 25.5542Z" />
    <path fill="#000000"
        d="M69.7318 10.5052V12.231C69.7318 15.187 72.0801 17.5906 74.9666 17.5906H84.2324C87.7191 17.5906 88.4516 19.4689 88.4516 21.0438V21.1264C88.4516 23.2624 86.9189 24.5377 84.3532 24.5377H73.6639C72.3049 24.5377 71.1996 25.6695 71.1996 27.061V40.7439H78.724V31.4991H82.591L87.2712 38.6549C88.1256 39.963 89.5546 40.7439 91.0932 40.7439H97.4933L90.3618 30.0692L90.8134 29.8362C94.243 28.0688 96.0559 24.943 96.0559 20.7954V20.714C96.0559 17.8303 95.1527 15.3816 93.4442 13.6338C91.4456 11.5867 88.4413 10.5052 84.7561 10.5052H69.7318Z" />
    <path fill="#000000"
        d="M98.1322 12.7149V10.5052H119.569C122.175 10.5052 124.296 12.6775 124.296 15.3465V17.7138H114.976V40.7439H107.452V17.7138H103.014C100.323 17.7138 98.1322 15.4714 98.1322 12.7149Z" />
</svg>