<svg xmlns="http://www.w3.org/2000/svg" width="164" height="150" viewBox="0 0 164 150" fill="none"><path d="M45.56 138.741C45.5763 138.452 45.5352 138.162 45.4391 137.889C45.3429 137.616 45.1937 137.365 45 137.15C44.7936 136.958 44.551 136.81 44.2865 136.714C44.0221 136.618 43.7411 136.576 43.46 136.59C42.9022 136.572 42.3518 136.722 41.88 137.02C41.397 137.355 41.0439 137.846 40.88 138.411L39.05 137.63C39.3017 136.804 39.8408 136.094 40.57 135.63C41.4508 135.095 42.4706 134.834 43.5 134.88C44.2388 134.865 44.9731 134.997 45.6599 135.27C46.2599 135.517 46.7745 135.934 47.14 136.47C47.5178 137.067 47.7092 137.764 47.69 138.47V143.031C47.6748 143.133 47.6837 143.236 47.716 143.334C47.7484 143.432 47.8032 143.521 47.8761 143.594C47.949 143.667 48.038 143.722 48.1359 143.754C48.2338 143.787 48.338 143.796 48.44 143.781C48.6836 143.783 48.9261 143.748 49.1599 143.68L49.03 145.19C48.6591 145.355 48.2556 145.434 47.85 145.42C47.4439 145.427 47.0412 145.345 46.67 145.18C46.332 145.034 46.0486 144.786 45.86 144.47C45.6488 144.106 45.5448 143.69 45.56 143.27V143.13H46.01C45.9033 143.64 45.6371 144.103 45.25 144.451C44.8668 144.794 44.4177 145.056 43.93 145.22C43.4341 145.39 42.914 145.477 42.39 145.48C41.8018 145.491 41.2173 145.386 40.67 145.17C40.167 144.989 39.7354 144.651 39.4384 144.206C39.1414 143.762 38.9948 143.235 39.02 142.701C39.0083 142.352 39.0688 142.006 39.1979 141.682C39.327 141.358 39.5218 141.065 39.77 140.821C40.3599 140.287 41.0937 139.94 41.88 139.821L45.88 139.04V140.58L43 141.17C42.5413 141.233 42.1013 141.393 41.71 141.64C41.5658 141.739 41.4502 141.875 41.3747 142.033C41.2993 142.191 41.2666 142.366 41.28 142.54C41.2743 142.715 41.3115 142.888 41.3882 143.045C41.4649 143.202 41.5787 143.337 41.7199 143.44C42.0597 143.683 42.4726 143.804 42.89 143.781C43.227 143.783 43.563 143.743 43.89 143.661C44.2018 143.581 44.4966 143.445 44.76 143.26C45.0191 143.078 45.2287 142.834 45.37 142.55C45.5174 142.217 45.5891 141.855 45.58 141.491L45.56 138.741Z" fill="#B6A8E2"></path><path d="M55.49 134.84C56.2024 134.825 56.9115 134.943 57.58 135.19C58.1352 135.41 58.6341 135.752 59.04 136.19C59.4369 136.625 59.7429 137.135 59.94 137.69L57.88 138.5C57.7426 137.948 57.4472 137.447 57.03 137.06C56.6004 136.715 56.0604 136.538 55.51 136.56C54.9538 136.544 54.4048 136.69 53.93 136.98C53.4797 137.275 53.1306 137.701 52.93 138.201C52.6875 138.839 52.5753 139.519 52.6 140.201C52.5803 140.864 52.696 141.523 52.94 142.14C53.1436 142.633 53.4924 143.051 53.94 143.34C54.4052 143.626 54.9443 143.769 55.49 143.75C55.9015 143.757 56.31 143.678 56.69 143.52C57.0263 143.369 57.3187 143.135 57.54 142.84C57.7781 142.526 57.9361 142.159 58 141.77L60 142.44C59.8209 143.034 59.5175 143.583 59.11 144.05C58.697 144.513 58.1841 144.875 57.61 145.11C56.9552 145.372 56.255 145.502 55.55 145.491C54.6166 145.51 53.6938 145.289 52.87 144.85C52.1017 144.433 51.4724 143.801 51.06 143.031C50.6389 142.14 50.4205 141.166 50.4205 140.18C50.4205 139.195 50.6389 138.222 51.06 137.331C51.4653 136.556 52.0918 135.919 52.86 135.5C53.6664 135.061 54.5715 134.834 55.49 134.84V134.84Z" fill="#B6A8E2"></path><path d="M68.25 138.74C68.2692 138.451 68.2294 138.161 68.1332 137.888C68.0369 137.615 67.8861 137.363 67.69 137.15C67.4843 136.957 67.2418 136.809 66.9772 136.713C66.7125 136.617 66.4312 136.575 66.15 136.59C65.5954 136.572 65.0482 136.722 64.58 137.02C64.091 137.348 63.7361 137.842 63.58 138.41L61.74 137.63C61.9956 136.805 62.5339 136.097 63.26 135.63C64.1413 135.096 65.1607 134.835 66.19 134.88C66.932 134.866 67.6694 134.998 68.36 135.27C68.9582 135.519 69.472 135.936 69.84 136.47C70.2143 137.068 70.4022 137.764 70.38 138.47V143.03C70.3648 143.132 70.3737 143.236 70.4061 143.334C70.4384 143.432 70.4932 143.521 70.5661 143.594C70.639 143.667 70.728 143.722 70.8259 143.754C70.9239 143.786 71.028 143.796 71.13 143.78C71.3736 143.783 71.6163 143.749 71.85 143.68L71.73 145.19C71.3559 145.345 70.9549 145.425 70.55 145.425C70.145 145.425 69.7441 145.345 69.37 145.19C69.0291 145.045 68.7423 144.796 68.55 144.48C68.3388 144.116 68.2348 143.701 68.25 143.28V143.14H68.7C68.5929 143.647 68.3308 144.108 67.95 144.46C67.5631 144.804 67.1107 145.065 66.62 145.23C66.1278 145.4 65.6109 145.489 65.09 145.49C64.4986 145.501 63.9108 145.395 63.36 145.18C62.9594 145.008 62.6064 144.741 62.3308 144.403C62.0551 144.066 61.8651 143.666 61.7767 143.239C61.6884 142.812 61.7044 142.371 61.8233 141.951C61.9423 141.532 62.1607 141.147 62.46 140.83C63.054 140.297 63.7909 139.95 64.58 139.83L68.58 139.05V140.59L65.7 141.18C65.2418 141.244 64.8023 141.404 64.41 141.65C64.2658 141.749 64.1502 141.884 64.0748 142.042C63.9993 142.2 63.9666 142.375 63.98 142.55C63.9743 142.724 64.0114 142.898 64.0881 143.055C64.1648 143.212 64.2788 143.348 64.42 143.45C64.7642 143.693 65.1797 143.812 65.6 143.79C65.937 143.792 66.2729 143.751 66.6 143.67C66.9118 143.59 67.2066 143.455 67.47 143.27C67.7287 143.09 67.9356 142.845 68.07 142.56C68.2174 142.226 68.2891 141.865 68.28 141.5L68.25 138.74Z" fill="#B6A8E2"></path><path d="M77.69 145.5C76.8708 145.509 76.0664 145.282 75.3717 144.848C74.6771 144.414 74.1213 143.79 73.77 143.05C73.3526 142.163 73.1504 141.19 73.18 140.21C73.148 139.206 73.3644 138.21 73.81 137.31C74.1824 136.571 74.7548 135.951 75.4619 135.522C76.1691 135.092 76.9826 134.87 77.81 134.88C78.5877 134.849 79.3524 135.087 79.974 135.556C80.5956 136.024 81.0358 136.694 81.2199 137.45L80.98 137.67V130.48H83.1599V145.29H81.2199L81.06 142.52H81.3499C81.2679 143.097 81.0331 143.643 80.67 144.1C80.3178 144.531 79.869 144.874 79.36 145.1C78.8388 145.352 78.269 145.489 77.69 145.5V145.5ZM78.1599 143.74C78.6984 143.756 79.2277 143.598 79.67 143.29C80.1177 142.971 80.4647 142.53 80.67 142.02C80.9222 141.384 81.0413 140.703 81.02 140.02C81.0336 139.395 80.9142 138.775 80.67 138.2C80.4614 137.716 80.1132 137.305 79.67 137.02C79.1083 136.677 78.4445 136.543 77.794 136.64C77.1435 136.737 76.5475 137.059 76.11 137.55C75.5619 138.302 75.2932 139.221 75.3499 140.15C75.2987 141.075 75.5594 141.991 76.09 142.75C76.3286 143.071 76.6418 143.329 77.0025 143.501C77.3632 143.674 77.7604 143.756 78.1599 143.74V143.74Z" fill="#B6A8E2"></path><path d="M90.86 145.5C89.9231 145.522 88.9964 145.301 88.17 144.859C87.3995 144.445 86.7695 143.813 86.36 143.04C85.9389 142.149 85.7205 141.175 85.7205 140.189C85.7205 139.204 85.9389 138.231 86.36 137.34C86.7645 136.567 87.387 135.931 88.15 135.51C88.9453 135.081 89.837 134.865 90.74 134.88C91.6261 134.851 92.5036 135.062 93.28 135.49C93.9558 135.887 94.5066 136.466 94.87 137.16C95.2463 137.907 95.435 138.734 95.42 139.57C95.42 139.82 95.42 140.049 95.42 140.269C95.4131 140.46 95.393 140.651 95.36 140.84H87.15V139.17H94.4L93.32 139.49C93.3707 138.716 93.1198 137.952 92.62 137.359C92.3755 137.105 92.0793 136.907 91.7515 136.778C91.4237 136.649 91.0719 136.591 90.72 136.609C90.1816 136.6 89.6514 136.742 89.19 137.019C88.7361 137.31 88.386 137.738 88.19 138.24C87.9378 138.876 87.8187 139.556 87.84 140.24C87.8195 140.906 87.9458 141.568 88.21 142.179C88.413 142.672 88.762 143.091 89.21 143.38C89.6903 143.665 90.2418 143.807 90.8 143.79C91.3787 143.815 91.9533 143.68 92.46 143.399C92.8831 143.134 93.2282 142.762 93.46 142.32L95.2 143.139C94.954 143.625 94.6141 144.057 94.2 144.41C93.7717 144.789 93.267 145.072 92.72 145.24C92.1179 145.426 91.4899 145.513 90.86 145.5V145.5Z" fill="#B6A8E2"></path><path d="M98 145.29V135.08H99.94L100.05 136.8C100.36 136.18 100.857 135.673 101.47 135.35C102.047 135.037 102.694 134.875 103.35 134.88C104.048 134.877 104.736 135.049 105.35 135.38C105.969 135.712 106.461 136.24 106.75 136.88C106.954 136.439 107.259 136.052 107.64 135.75C108.02 135.456 108.45 135.232 108.91 135.09C109.354 134.953 109.815 134.882 110.28 134.88C110.916 134.875 111.544 135.012 112.12 135.281C112.691 135.56 113.172 135.993 113.51 136.531C113.885 137.183 114.069 137.928 114.04 138.68V145.29H111.85V139.02C111.882 138.695 111.846 138.368 111.744 138.058C111.643 137.748 111.478 137.463 111.26 137.22C110.846 136.849 110.305 136.653 109.75 136.67C109.278 136.663 108.813 136.789 108.408 137.033C108.003 137.276 107.675 137.629 107.46 138.05C107.202 138.575 107.075 139.156 107.09 139.741V145.29H104.91V139.02C104.939 138.695 104.902 138.368 104.801 138.059C104.7 137.749 104.536 137.464 104.32 137.22C103.903 136.849 103.358 136.652 102.8 136.67C102.372 136.677 101.953 136.79 101.58 137C101.162 137.236 100.816 137.582 100.58 138C100.279 138.565 100.137 139.201 100.17 139.84V145.27L98 145.29Z" fill="#B6A8E2"></path><path d="M125.79 135.08L121.32 146.5C121.075 147.17 120.738 147.802 120.32 148.38C120.009 148.804 119.601 149.147 119.13 149.38C118.63 149.59 118.092 149.692 117.55 149.68C117.09 149.685 116.631 149.622 116.19 149.49C115.802 149.374 115.434 149.198 115.1 148.97L115.63 147.27C115.874 147.483 116.156 147.649 116.46 147.76C116.779 147.88 117.119 147.938 117.46 147.93C117.817 147.937 118.166 147.832 118.46 147.63C118.826 147.32 119.1 146.915 119.25 146.46L119.7 145.35L118.61 142.82L115.43 135.08H117.88L120.14 141.49L120.74 143.41L121.41 141.31L123.56 135.08H125.79Z" fill="#B6A8E2"></path><path d="M139.85 92.5099C139.743 92.0432 139.495 91.6207 139.14 91.2999C138.677 91.077 138.16 90.9903 137.65 91.0499C135.46 91.0499 133.26 91.0499 131.05 91.0499C130.32 91.0499 129.87 91.7002 129.68 92.3302C126.193 102.397 122.71 112.467 119.23 122.54C118.989 123.027 118.876 123.567 118.9 124.109C118.965 124.352 119.112 124.565 119.316 124.711C119.52 124.857 119.769 124.928 120.02 124.91C122.02 124.91 123.91 124.91 125.86 124.91C126.179 124.923 126.493 124.833 126.756 124.652C127.019 124.472 127.217 124.212 127.32 123.91C127.95 122.11 128.52 120.28 129.15 118.47C132.87 118.47 136.58 118.47 140.3 118.47C140.9 120.3 141.49 122.12 142.16 123.91C142.27 124.212 142.472 124.471 142.738 124.651C143.003 124.83 143.319 124.921 143.64 124.91C145.64 124.91 147.64 124.91 149.64 124.91C149.813 124.888 149.977 124.824 150.12 124.725C150.262 124.625 150.379 124.493 150.459 124.339C150.54 124.185 150.582 124.013 150.582 123.839C150.582 123.665 150.54 123.494 150.46 123.34C146.94 113.07 143.36 102.79 139.81 92.5099H139.85ZM130.64 111.59C131.9 107.72 133.14 103.87 134.4 100C134.487 99.6991 134.604 99.4075 134.75 99.13C136.07 103.27 137.35 107.43 138.65 111.59H130.65H130.64ZM53.04 118.91C52.9668 118.626 52.7921 118.379 52.5488 118.215C52.3056 118.051 52.0108 117.981 51.72 118.02C47.41 118.02 43.09 118.02 38.78 118.02C38.78 115.68 38.78 113.34 38.78 111.02H50.38C50.91 111.02 51.55 111.02 51.87 110.54C52.1113 109.952 52.2008 109.312 52.13 108.68C52.13 107.58 52.19 106.47 52.07 105.38C52.0277 105.078 51.8691 104.805 51.6282 104.618C51.3873 104.432 51.083 104.346 50.78 104.38C46.78 104.38 42.78 104.38 38.78 104.38C38.78 102.25 38.78 100.12 38.78 97.9904C43.03 97.9904 47.29 97.9904 51.55 97.9904C51.855 98.0072 52.1546 97.9047 52.3859 97.7052C52.6171 97.5056 52.762 97.2242 52.79 96.92C52.89 95.81 52.79 94.6904 52.79 93.5704C52.8508 92.9199 52.8001 92.2634 52.64 91.63C52.4966 91.4132 52.2945 91.2411 52.0572 91.1349C51.8199 91.0286 51.5573 90.993 51.3 91.0304C44.9867 91.0304 38.6533 91.0304 32.3 91.0304C31.8068 90.9771 31.3114 91.1081 30.91 91.3995C30.7781 91.5655 30.6817 91.7574 30.6267 91.962C30.5716 92.1667 30.5592 92.3803 30.59 92.59V123.17C30.5177 123.409 30.511 123.663 30.5706 123.905C30.6303 124.148 30.7541 124.369 30.929 124.547C31.1039 124.725 31.3235 124.852 31.5647 124.916C31.806 124.98 32.0599 124.978 32.3 124.91H51.47C51.7088 124.942 51.9518 124.914 52.177 124.828C52.4022 124.743 52.6026 124.602 52.76 124.42C52.9863 123.901 53.0658 123.33 52.99 122.77C52.99 121.48 52.99 120.17 52.99 118.89L53.04 118.91ZM22.47 108.109C19.91 106.109 16.74 105.24 13.81 104C12.5281 103.572 11.3449 102.892 10.33 102C9.875 101.519 9.62141 100.882 9.62141 100.22C9.62141 99.5578 9.875 98.9205 10.33 98.4396C11.1428 97.8416 12.1125 97.4941 13.12 97.4396C15.952 97.2141 18.8006 97.5541 21.5 98.4396C21.6298 98.495 21.7694 98.5247 21.9105 98.5255C22.0517 98.5263 22.1916 98.4985 22.322 98.4445C22.4524 98.3904 22.5707 98.3104 22.6699 98.2101C22.7692 98.1097 22.8475 97.9905 22.9 97.8595C23.45 96.4795 24.02 95.1203 24.48 93.7003C24.65 92.9703 23.88 92.5199 23.31 92.2599C20.4239 90.9976 17.2871 90.4127 14.14 90.5499C12.5973 90.4713 11.0507 90.5686 9.53004 90.84C7.03895 91.1712 4.75341 92.3977 3.09999 94.2902C1.34999 96.5002 1.1 99.5296 1.55 102.23C1.7614 103.412 2.21192 104.54 2.87391 105.542C3.5359 106.545 4.39547 107.401 5.40004 108.06C8.16004 109.97 11.5 110.73 14.54 112.06C15.5591 112.427 16.4559 113.072 17.13 113.92C17.4546 114.444 17.5768 115.068 17.4737 115.676C17.3706 116.284 17.0493 116.832 16.57 117.22C15.4989 117.93 14.2541 118.335 12.97 118.39C9.90068 118.638 6.81617 118.155 3.96998 116.98C3.70733 116.842 3.40092 116.814 3.11787 116.902C2.83482 116.991 2.59829 117.188 2.46003 117.45C1.94003 118.68 1.54 119.95 1.05 121.19C0.873666 121.662 0.835529 122.176 0.940014 122.67C2.09133 123.446 3.37629 124.002 4.72999 124.31C8.04598 125.175 11.483 125.483 14.9 125.22C18.06 124.93 21.38 123.97 23.56 121.55C24.5225 120.379 25.2034 119.003 25.5502 117.527C25.8969 116.052 25.9003 114.517 25.56 113.04C25.1905 111.046 24.0882 109.262 22.47 108.04V108.109ZM84.77 91.0402C82.9 90.9702 81.02 91.0402 79.14 91.0402C78.9637 91.0325 78.7879 91.0639 78.6251 91.132C78.4623 91.2 78.3165 91.3029 78.1981 91.4337C78.0797 91.5645 77.9915 91.72 77.94 91.8888C77.8885 92.0576 77.8749 92.2356 77.9 92.4103C77.9 98.6803 77.85 104.96 77.9 111.22C77.75 110.92 77.59 110.62 77.41 110.32C73.73 104.16 70.0633 97.9938 66.41 91.8204C66.2493 91.5542 66.0167 91.3381 65.739 91.1984C65.4612 91.0586 65.1496 91.0008 64.84 91.0304C62.96 91.0304 61.08 91.0304 59.21 91.0304C59.0465 91.0357 58.8859 91.0749 58.7389 91.1466C58.5919 91.2183 58.4617 91.3208 58.3568 91.4464C58.252 91.572 58.1749 91.7176 58.1306 91.8751C58.0864 92.0326 58.0759 92.1977 58.1 92.3595C58.1 102.619 58.1 112.877 58.1 123.13C58.0555 123.574 58.1499 124.022 58.37 124.41C58.5308 124.578 58.7281 124.707 58.9465 124.786C59.165 124.866 59.3988 124.895 59.63 124.87H64.47C64.9046 124.928 65.3449 124.817 65.7 124.56C66.0225 124.082 66.1545 123.5 66.07 122.93C66.07 116.87 66.07 110.81 66.07 104.76C69.8767 111.133 73.68 117.51 77.48 123.89C77.5829 124.115 77.7353 124.313 77.9258 124.471C78.1163 124.628 78.3399 124.741 78.58 124.8C79.58 124.93 80.67 124.8 81.71 124.87C82.75 124.94 83.89 124.93 84.98 124.81C85.2908 124.719 85.5573 124.517 85.7288 124.242C85.9002 123.968 85.9647 123.64 85.91 123.32C85.91 113.007 85.91 102.674 85.91 92.3204C85.9308 92.1601 85.9188 91.9964 85.8746 91.8409C85.8305 91.6855 85.7551 91.5405 85.6531 91.4152C85.5511 91.2898 85.4246 91.1873 85.2814 91.1124C85.1381 91.0375 84.9812 90.9918 84.82 90.9796L84.77 91.0402ZM118.92 101.98C118.8 99.0396 117.92 95.9796 115.62 93.9796C113.03 91.6896 109.45 91.0996 106.11 90.9796C101.98 90.9096 97.83 90.9796 93.7 90.9796C93 90.8996 92.15 91.3398 92.2 92.1398C92.2 102.4 92.2 112.65 92.2 122.91C92.2 123.45 92.13 124.07 92.54 124.49C92.9319 124.777 93.4176 124.905 93.9 124.85H98.55C99.0062 124.901 99.4676 124.822 99.88 124.62C100.069 124.421 100.209 124.182 100.291 123.92C100.372 123.658 100.393 123.38 100.35 123.109V115.35C103.76 115.35 107.21 115.53 110.56 114.75C113.127 114.272 115.419 112.843 116.98 110.75C118.75 108.22 119.04 105 118.98 102.01L118.92 101.98ZM110.35 105.76C110.03 106.474 109.519 107.085 108.873 107.526C108.227 107.968 107.471 108.221 106.69 108.26C104.597 108.415 102.498 108.465 100.4 108.41V97.8995C102.4 97.9595 104.51 97.7897 106.55 98.0197C107.316 98.0472 108.062 98.2755 108.713 98.6808C109.364 99.0861 109.897 99.6547 110.26 100.33C110.914 102.076 110.946 103.993 110.35 105.76V105.76ZM163.01 92.09C162.991 91.9108 162.935 91.7376 162.846 91.5812C162.756 91.4248 162.635 91.289 162.491 91.1818C162.346 91.0746 162.18 90.998 162.005 90.9581C161.829 90.9183 161.647 90.9161 161.47 90.9503C159.47 90.9503 157.47 90.8504 155.57 91.0304C155.311 91.1166 155.09 91.2906 154.946 91.5226C154.801 91.7545 154.743 92.0293 154.78 92.2999C154.78 102.687 154.78 113.066 154.78 123.44C154.761 123.598 154.773 123.76 154.816 123.913C154.86 124.067 154.934 124.21 155.033 124.335C155.133 124.46 155.257 124.563 155.397 124.64C155.537 124.716 155.691 124.764 155.85 124.78C157.6 124.87 159.35 124.78 161.1 124.78C161.647 124.856 162.202 124.727 162.66 124.42C162.978 123.959 163.111 123.394 163.03 122.84C163.03 112.58 163.03 102.32 163.03 92.0499" fill="#B6A8E2"></path><path d="M134.77 16.6002C122.27 -5.52985 95.95 2.67023 78.3 16.4302C76.7078 17.6706 74.805 18.449 72.8 18.6802C72.27 18.7402 71.71 18.7809 71.13 18.8209C67.3744 19.0674 63.6552 17.9558 60.65 15.69C58.14 13.78 56.25 11.3501 56.29 8.77007C56.2911 7.95702 56.3749 7.14627 56.54 6.35015V6.35015C56.5904 6.10365 56.6538 5.86049 56.73 5.62066C56.9518 4.94077 57.2902 4.30475 57.73 3.74078C57.9832 3.49995 58.2825 3.31208 58.61 3.19V3.19H58.69C60.75 2.57 63.25 4.33992 62.2 5.85992C61.77 6.48992 60.2 6.06 59.66 6.94C59.12 7.82 59.27 8.26066 60.11 8.62066C60.95 8.98066 64.11 8.2807 64.33 6.4107C64.72 3.4107 63.21 1.70031 61.07 0.510308C60.3911 0.151255 59.6267 -0.0142563 58.86 0.0308159C57.7474 0.0570537 56.6545 0.32988 55.6602 0.829644C54.6659 1.32941 53.7948 2.0433 53.11 2.92046C48.91 7.80046 49.9 14.4005 53.55 18.9205C53.6552 19.0573 53.7687 19.1872 53.89 19.3101C54.4681 19.9206 55.1044 20.4736 55.79 20.9605L58.49 22.8804C58.7012 23.0304 58.869 23.2335 58.9765 23.4693C59.0839 23.7051 59.1272 23.9654 59.1018 24.2232C59.0764 24.481 58.9833 24.7278 58.832 24.938C58.6807 25.1483 58.4764 25.3145 58.24 25.4205C52.82 27.8505 45.5 31.0501 40.29 31.7701C34.89 32.5001 30.04 30.4205 28.77 24.9205C28.4587 23.5425 28.5 22.1083 28.89 20.7505C28.9889 20.5072 29.1024 20.2702 29.23 20.0406C32.06 15.3406 37.92 19.2701 36.63 21.7701C36.3165 22.3536 36.1035 22.9859 36 23.6402C35.62 26.0302 37.93 26.0304 39.24 23.5904C41.7 19.0504 38.12 15.8904 34.78 14.5904C33.524 14.0379 32.1395 13.8445 30.78 14.0308V14.0308C30.3511 14.1015 29.927 14.1983 29.51 14.3209C28.3706 14.6554 27.312 15.2196 26.4 15.98L26.07 16.2408C25.93 16.3708 25.78 16.4902 25.63 16.6402C25.0239 17.2113 24.4839 17.849 24.02 18.5406C20.67 23.5406 21.65 30.3902 25.35 34.8902C32.63 43.7402 41.71 42.5099 51.05 40.3599C51.1788 40.3204 51.3177 40.3302 51.4403 40.3863C51.5628 40.4424 51.6605 40.5412 51.7148 40.6646C51.7691 40.788 51.7762 40.927 51.7347 41.0552C51.6933 41.1835 51.6062 41.2916 51.49 41.3599C44.49 46.0699 37.71 52.3605 39.19 60.9605C39.75 64.2305 42.6099 67.3207 45.7199 68.9107C45.7199 68.9107 45.7199 68.9105 45.7199 68.9605C46.3128 69.2579 46.9366 69.4887 47.58 69.65C48.8404 70.1172 50.2189 70.1601 51.5059 69.772C52.7929 69.3839 53.918 68.5867 54.71 67.5005C55.7082 66.4717 56.2844 65.1063 56.3252 63.6734C56.3659 62.2405 55.8681 60.8441 54.93 59.7603C54.5641 59.3068 54.0688 58.9753 53.51 58.8101C52.69 58.5801 51.75 58.7002 52.9 61.1402C54.13 63.7602 52.67 68.1408 48.46 65.5308C48.0886 65.2935 47.7373 65.0252 47.4099 64.73C46.6149 63.863 46.057 62.8063 45.79 61.6607C44.79 57.2807 48.12 53.7904 51.24 51.8804C55.88 49.4304 58.56 49.3101 58.56 49.3101V49.44C58.5373 55.2649 60.2273 60.9683 63.42 65.8404C71.08 77.8404 86.6 83.8908 98.31 73.4908C103.62 68.7708 105.56 60.6403 102.17 54.2203C99.47 49.1203 92.72 44.9503 86.91 47.2203C85.6488 47.6977 84.4982 48.4277 83.5285 49.3648C82.5588 50.3019 81.7903 51.4264 81.27 52.6705C80.9137 53.5512 80.8064 54.5132 80.96 55.4507C81.18 56.7107 81.87 58.0507 84.06 56.2007C86.25 54.3507 87.7 50.2 91.77 52.73C97.45 56.24 96.77 62.9205 92.42 67.0005C88.07 71.0805 81.89 70.6207 77.76 66.4507C72.38 61.0007 73.97 52.6806 78.89 47.5406C84.01 42.2006 90.72 40.2305 97.83 42.4605C105.13 44.7305 112.38 50.2008 120.4 48.2808C133 45.2308 141.16 27.9302 134.77 16.6002Z" fill="#B6A8E2"></path></svg>